<svg width="26" height="29" viewBox="0 0 26 29" fill="none" xmlns="http://www.w3.org/2000/svg">
<g filter="url(#filter0_d_1_196876)">
<path d="M16 6.5C14.6193 6.5 13.5 7.61929 13.5 9C13.5 10.3807 14.6193 11.5 16 11.5C17.3807 11.5 18.5 10.3807 18.5 9C18.5 7.61929 17.3807 6.5 16 6.5Z" fill="#292929"/>
<path fill-rule="evenodd" clip-rule="evenodd" d="M4 3H22V21H19.5266L19.4945 21.0002H6.5L6.46787 21H4V3ZM20 12.8362C18.8552 13.898 17.7044 14.4537 16 14.4537C14.0944 14.4537 12.6208 13.2859 11.1527 11.7048C10.1511 10.6262 8.51491 10.4335 7.29018 11.25L7.26758 11.2651L6 12.2134V5H20V12.8362Z" fill="#292929"/>
</g>
<defs>
<filter id="filter0_d_1_196876" x="-3" y="0" width="32" height="32" filterUnits="userSpaceOnUse" color-interpolation-filters="sRGB">
<feFlood flood-opacity="0" result="BackgroundImageFix"/>
<feColorMatrix in="SourceAlpha" type="matrix" values="0 0 0 0 0 0 0 0 0 0 0 0 0 0 0 0 0 0 127 0" result="hardAlpha"/>
<feOffset dy="4"/>
<feGaussianBlur stdDeviation="2"/>
<feComposite in2="hardAlpha" operator="out"/>
<feColorMatrix type="matrix" values="0 0 0 0 0 0 0 0 0 0 0 0 0 0 0 0 0 0 0.25 0"/>
<feBlend mode="normal" in2="BackgroundImageFix" result="effect1_dropShadow_1_196876"/>
<feBlend mode="normal" in="SourceGraphic" in2="effect1_dropShadow_1_196876" result="shape"/>
</filter>
</defs>
</svg>
