<svg width="25" height="24" viewBox="0 0 25 24" fill="none" xmlns="http://www.w3.org/2000/svg">
<path d="M18.1861 12C18.1861 15.0376 15.7499 17.5 12.7446 17.5C9.7394 17.5 7.30316 15.0376 7.30316 12M21.6489 12C21.6489 16.9706 17.6623 21 12.7446 21C7.82696 21 3.84039 16.9706 3.84039 12C3.84039 7.02944 7.82696 3 12.7446 3C17.6623 3 21.6489 7.02944 21.6489 12Z" stroke="#666666" stroke-width="2"/>
<path d="M11.7553 9C11.7553 9.82843 11.0909 10.5 10.2713 10.5C9.45166 10.5 8.78723 9.82843 8.78723 9C8.78723 8.17157 9.45166 7.5 10.2713 7.5C11.0909 7.5 11.7553 8.17157 11.7553 9Z" fill="#666666"/>
<path d="M16.7021 9C16.7021 9.82843 16.0377 10.5 15.2181 10.5C14.3985 10.5 13.734 9.82843 13.734 9C13.734 8.17157 14.3985 7.5 15.2181 7.5C16.0377 7.5 16.7021 8.17157 16.7021 9Z" fill="#666666"/>
</svg>
