<svg width="25" height="24" viewBox="0 0 25 24" fill="none" xmlns="http://www.w3.org/2000/svg">
<path d="M6.80848 21L5.81065 21.0658L5.87226 22H6.80848V21ZM18.6808 21V22H19.617L19.6787 21.0658L18.6808 21ZM3.84039 5H2.84039V7H3.84039V5ZM21.6489 7H22.6489V5H21.6489V7ZM11.7659 11V10H9.76593V11H11.7659ZM9.76593 16V17H11.7659V16H9.76593ZM15.7234 11V10H13.7234V11H15.7234ZM13.7234 16V17H15.7234V16H13.7234ZM4.82128 6.06581L5.81065 21.0658L7.80631 20.9342L6.81695 5.93419L4.82128 6.06581ZM6.80848 22H18.6808V20H6.80848V22ZM19.6787 21.0658L20.668 6.06581L18.6723 5.93419L17.683 20.9342L19.6787 21.0658ZM19.6702 5H5.81912V7H19.6702V5ZM3.84039 7H5.81912V5H3.84039V7ZM19.6702 7H21.6489V5H19.6702V7ZM9.76593 11V16H11.7659V11H9.76593ZM13.7234 11V16H15.7234V11H13.7234ZM12.7446 4C14.1138 4 15.2775 4.94735 15.6083 6.24677L17.5465 5.75323C16.9987 3.60219 15.0635 2 12.7446 2V4ZM9.88095 6.24677C10.2118 4.94735 11.3755 4 12.7446 4V2C10.4258 2 8.49055 3.60219 7.9428 5.75323L9.88095 6.24677Z" fill="#666666"/>
</svg>
